<?xml version="1.0" standalone="no"?>
<!DOCTYPE svg PUBLIC "-//W3C//DTD SVG 20010904//EN"
 "http://www.w3.org/TR/2001/REC-SVG-20010904/DTD/svg10.dtd">
<svg version="1.0" xmlns="http://www.w3.org/2000/svg"
 width="232.000000pt" height="217.000000pt" viewBox="0 0 232.000000 217.000000"
 preserveAspectRatio="xMidYMid meet">
<metadata>
Created by potrace 1.16, written by Peter Selinger 2001-2019
</metadata>
<g transform="translate(0.000000,217.000000) scale(0.100000,-0.100000)"
fill="#000000" stroke="none">
<path d="M962 2150 c-158 -35 -289 -93 -410 -182 -138 -102 -275 -280 -333
-432 l-32 -84 -46 -7 c-62 -9 -95 -28 -120 -68 -19 -32 -21 -49 -21 -219 0
-176 1 -187 23 -219 27 -41 79 -69 128 -69 32 0 38 -4 44 -27 27 -113 163
-324 272 -423 140 -128 344 -231 504 -255 l44 -6 3 73 c2 59 9 86 35 141 32
64 32 67 12 67 -11 0 -54 9 -95 21 -249 69 -452 273 -515 518 -18 74 -29 191
-21 234 6 32 11 36 74 56 126 41 227 116 301 222 27 39 51 75 53 81 3 7 28 -8
58 -31 111 -88 279 -155 469 -186 81 -14 137 -16 260 -12 86 3 168 9 182 13
26 6 27 3 38 -46 16 -73 13 -244 -4 -318 -34 -145 -126 -291 -246 -389 -64
-53 -81 -73 -61 -73 4 0 30 -20 59 -45 l51 -45 100 0 99 0 50 53 c27 28 63 72
79 96 l29 45 3 -118 c3 -133 -7 -162 -68 -203 -31 -22 -43 -23 -206 -23 l-173
0 -15 28 c-68 131 -260 150 -355 36 -71 -87 -65 -208 15 -287 45 -46 83 -61
149 -62 77 0 145 37 184 100 l26 43 195 4 c219 3 240 9 311 85 73 76 74 79 77
369 l3 262 30 6 c41 8 86 41 104 76 21 41 22 368 1 408 -25 47 -62 74 -121 86
-57 11 -57 11 -75 64 -90 255 -325 493 -585 593 -113 44 -191 59 -340 64 -106
4 -147 1 -223 -15z"/>
<path d="M801 1283 c-48 -24 -71 -67 -71 -132 0 -50 3 -57 40 -93 37 -34 46
-38 93 -38 97 0 153 59 144 153 -9 99 -116 156 -206 110z"/>
<path d="M1376 1281 c-84 -56 -90 -177 -10 -240 33 -26 111 -28 155 -6 70 37
93 145 43 205 -51 61 -131 78 -188 41z"/>
</g>
</svg>
