<?xml version="1.0" standalone="no"?>
<!DOCTYPE svg PUBLIC "-//W3C//DTD SVG 20010904//EN"
 "http://www.w3.org/TR/2001/REC-SVG-20010904/DTD/svg10.dtd">
<svg version="1.0" xmlns="http://www.w3.org/2000/svg"
 width="180.000000pt" height="281.000000pt" viewBox="0 0 180.000000 281.000000"
 preserveAspectRatio="xMidYMid meet">
<metadata>
Created by potrace 1.16, written by Peter Selinger 2001-2019
</metadata>
<g transform="translate(0.000000,281.000000) scale(0.100000,-0.100000)"
fill="#000000" stroke="none">
<path d="M822 2793 c-21 -4 -23 -9 -18 -41 3 -20 13 -122 23 -226 l17 -188 60
7 c34 3 62 7 63 8 1 1 -7 92 -17 202 -11 110 -19 210 -20 223 0 19 -5 22 -42
21 -24 -1 -53 -4 -66 -6z"/>
<path d="M1278 2502 l-146 -176 46 -38 c26 -21 50 -37 53 -36 5 3 226 265 278
331 13 16 11 21 -20 48 -64 55 -52 62 -211 -129z"/>
<path d="M325 2486 c-20 -25 -34 -49 -31 -54 3 -6 81 -72 173 -148 l166 -138
39 45 c21 24 38 47 38 50 0 6 -312 267 -337 282 -7 4 -26 -11 -48 -37z"/>
<path d="M1475 2247 c-22 -8 -56 -22 -75 -31 -19 -10 -175 -158 -346 -328
l-311 -310 -12 119 c-16 167 -27 220 -56 269 -97 165 -289 126 -385 -79 -37
-76 -47 -123 -125 -569 -61 -344 -67 -370 -98 -420 -43 -69 -54 -96 -62 -152
-14 -89 -1 -106 303 -407 316 -315 325 -321 462 -327 74 -3 105 2 240 36 287
74 322 94 552 330 190 196 230 257 230 351 0 69 -18 109 -75 168 l-40 42 18
37 c43 91 26 169 -54 248 -49 48 -49 48 -35 82 19 45 18 118 -2 157 -9 18 -34
51 -57 74 l-40 42 115 119 c141 146 173 202 173 307 -1 77 -21 128 -71 179
-63 62 -169 89 -249 63z m140 -119 c61 -28 86 -127 51 -198 -10 -19 -126 -143
-257 -275 -250 -252 -263 -270 -223 -309 30 -31 57 -18 148 71 l89 87 38 -42
c71 -76 48 -135 -110 -280 -72 -66 -91 -89 -91 -111 0 -70 61 -70 138 1 31 29
72 66 90 83 l33 30 40 -42 c72 -77 49 -125 -148 -306 -67 -61 -76 -84 -43
-117 31 -31 54 -24 122 37 35 31 73 66 86 77 l22 20 30 -29 c56 -53 55 -121
-1 -200 -15 -22 -97 -110 -181 -196 -137 -140 -161 -160 -231 -194 -86 -41
-363 -115 -430 -115 -99 0 -104 4 -390 289 -148 146 -273 274 -279 285 -16 29
-1 80 45 148 l42 63 76 431 c84 473 99 525 170 589 42 38 64 43 95 21 38 -27
53 -85 73 -281 l19 -190 -44 -45 c-63 -65 -58 -120 10 -120 27 0 80 49 431
400 248 248 413 405 435 414 42 18 110 20 145 4z"/>
</g>
</svg>
