<?xml version="1.0" standalone="no"?>
<!DOCTYPE svg PUBLIC "-//W3C//DTD SVG 20010904//EN"
 "http://www.w3.org/TR/2001/REC-SVG-20010904/DTD/svg10.dtd">
<svg version="1.0" xmlns="http://www.w3.org/2000/svg"
 width="233.000000pt" height="216.000000pt" viewBox="0 0 233.000000 216.000000"
 preserveAspectRatio="xMidYMid meet">
<metadata>
Created by potrace 1.16, written by Peter Selinger 2001-2019
</metadata>
<g transform="translate(0.000000,216.000000) scale(0.100000,-0.100000)"
fill="#000000" stroke="none">
<path d="M1065 2141 c-114 -31 -145 -77 -145 -212 0 -64 -3 -79 -15 -79 -9 0
-43 -11 -77 -25 l-61 -25 -72 69 c-121 117 -174 111 -326 -36 -105 -102 -129
-139 -129 -201 0 -59 14 -87 75 -151 l55 -58 -32 -71 -33 -71 -85 -1 c-69 0
-95 -5 -130 -22 -78 -41 -85 -57 -88 -234 -3 -142 -2 -159 18 -199 32 -66 75
-88 181 -93 l87 -4 27 -76 27 -75 -65 -66 c-121 -124 -116 -174 37 -329 112
-115 137 -132 195 -132 58 0 86 14 150 75 l58 55 54 -25 54 -25 3 126 c3 150
0 159 -117 323 -44 62 -92 137 -106 165 -103 214 -60 464 113 648 81 86 155
134 262 172 76 27 97 30 200 30 99 0 126 -4 195 -28 218 -75 361 -230 409
-443 41 -181 -1 -352 -133 -545 -73 -108 -81 -137 -81 -297 l0 -137 53 -50
c28 -28 63 -58 77 -68 30 -20 111 -21 148 -2 15 8 73 61 129 118 78 79 104
112 112 143 16 63 -1 109 -70 180 l-59 62 31 70 32 70 97 5 c117 6 157 25 189
92 18 37 21 61 21 182 0 125 -2 144 -22 184 -36 70 -64 84 -171 88 l-92 4 -28
74 -29 75 66 69 c75 80 91 121 75 186 -9 34 -32 63 -127 157 -93 92 -124 117
-154 122 -62 12 -98 -3 -168 -70 l-65 -63 -75 33 -75 34 -5 103 c-6 122 -14
139 -90 176 -49 24 -68 27 -165 29 -60 1 -123 -2 -140 -6z"/>
<path d="M985 1331 c-67 -38 -140 -118 -173 -189 -23 -49 -27 -70 -27 -152 0
-111 8 -130 113 -275 36 -49 78 -119 95 -154 29 -62 30 -69 35 -243 l5 -178
167 0 168 0 4 208 c5 235 6 241 97 376 94 138 119 250 86 372 -17 63 -92 184
-114 184 -6 0 -13 -21 -17 -47 -23 -159 -108 -255 -224 -255 -121 1 -201 111
-187 252 4 33 13 76 21 95 8 19 12 35 8 35 -4 0 -29 -13 -57 -29z"/>
</g>
</svg>
